<svg width="48" height="48" viewBox="0 0 48 48" fill="none" xmlns="http://www.w3.org/2000/svg">
<rect width="48" height="48" rx="16" fill="#7300E5" fill-opacity="0.14"/>
<path d="M24.0047 12.2485C29.8438 12.2485 34.5748 16.9795 34.5748 22.8186C34.5748 28.6578 29.8438 33.3888 24.0047 33.3888C18.1655 33.3888 13.4345 28.6578 13.4345 22.8186C13.4345 16.9795 18.1655 12.2485 24.0047 12.2485ZM27.9259 25.589C28.0111 25.5038 28.0963 25.3333 28.0963 25.1628C28.0963 24.9497 27.9685 24.7792 27.8406 24.6513L25.3686 22.8186V16.6811C25.3686 16.3401 25.0276 15.9992 24.6866 15.9992H23.3227C22.9391 15.9992 22.6408 16.3401 22.6408 16.6811V23.3301C22.6408 23.8842 22.8539 24.353 23.2801 24.6513L26.1358 26.7824C26.221 26.8677 26.3915 26.9529 26.5193 26.9529C26.7751 26.9529 26.9456 26.825 27.0734 26.6546L27.9259 25.589Z" fill="#7300E5"/>
</svg>
