<svg width="53" height="53" viewBox="0 0 53 53" fill="none" xmlns="http://www.w3.org/2000/svg">
<rect width="52.3733" height="52.3733" rx="16" fill="#7300E5" fill-opacity="0.14"/>
<path d="M29.0028 24.4888L29.9405 26.3641H34.5862L26.7865 34.3344C26.4881 34.6327 26.0193 34.6327 25.7209 34.3344L17.9212 26.3641H21.9276L23.2063 23.338L25.6357 28.7083C25.8914 29.2198 26.616 29.2624 26.8717 28.751L29.0028 24.4888ZM35.5239 17.2431C37.6124 19.3742 37.6976 22.7413 35.8649 25.0003H30.7929L29.5995 22.6561C29.3438 22.1446 28.6192 22.1446 28.3635 22.6561L26.275 26.833L23.803 21.3348C23.5472 20.7807 22.7801 20.7807 22.567 21.3348L21.0326 25.0003H16.6852C14.8098 22.7413 14.8951 19.3742 16.9835 17.2431L17.0688 17.1579C19.2851 14.899 22.8653 14.899 25.0816 17.1579L26.275 18.3513L27.4258 17.1579C29.6421 14.899 33.2223 14.899 35.4387 17.1579L35.5239 17.2431Z" fill="#7300E5"/>
</svg>
