<svg width="53" height="53" viewBox="0 0 53 53" fill="none" xmlns="http://www.w3.org/2000/svg">
<rect width="52.3733" height="52.3733" rx="16" fill="#7300E5" fill-opacity="0.14"/>
<path d="M22.286 26.0003C19.2598 26.0003 16.8304 23.5708 16.8304 20.5447C16.8304 17.5612 19.2598 15.0891 22.286 15.0891C25.2695 15.0891 27.7415 17.5612 27.7415 20.5447C27.7415 23.5708 25.2695 26.0003 22.286 26.0003ZM26.0793 27.3641C27.7841 27.3641 29.3185 28.1313 30.3414 29.3247L27.0596 32.6066L26.7186 32.9476L26.676 33.4164L26.3776 36.0163C26.335 36.3147 26.3776 36.6556 26.4629 36.9114H14.7846C13.6338 36.9114 12.7387 36.0163 12.7387 34.8655V33.1181C12.7387 29.9641 15.296 27.3641 18.45 27.3641H19.1746C20.1123 27.833 21.1778 28.0461 22.286 28.0461C23.3941 28.0461 24.417 27.833 25.3547 27.3641H26.0793ZM27.9972 33.5869L33.879 27.7051L36.9478 30.7739L31.066 36.6556L28.4661 36.9114C28.0399 36.9966 27.6989 36.613 27.7415 36.1868L27.9972 33.5869ZM39.7182 26.5543C40.1018 26.9806 40.1018 27.6199 39.7182 28.0035L37.9281 29.7936L34.8593 26.7248L35.0298 26.5543L36.6494 24.9347C37.033 24.5511 37.6723 24.5511 38.0985 24.9347L39.7182 26.5543Z" fill="#7300E5"/>
</svg>
