<svg width="53" height="53" viewBox="0 0 53 53" fill="none" xmlns="http://www.w3.org/2000/svg">
<rect width="52.3733" height="52.3733" rx="16" fill="#7300E5" fill-opacity="0.14"/>
<path d="M25.2958 24.0626C25.8072 23.5085 26.7023 23.5085 27.2137 24.0626C27.7678 24.574 27.7678 25.4691 27.2137 25.9806C26.7023 26.5346 25.8072 26.5346 25.2958 25.9806C24.7417 25.4691 24.7417 24.574 25.2958 24.0626ZM26.2761 14.4301C32.0726 14.4301 36.8462 19.2037 36.8462 25.0003C36.8462 30.8394 32.0726 35.5704 26.2761 35.5704C20.4369 35.5704 15.7059 30.8394 15.7059 25.0003C15.7059 19.2037 20.4369 14.4301 26.2761 14.4301ZM31.6464 20.7807C31.9447 20.0562 31.2202 19.3316 30.4956 19.6299L24.3581 22.443C24.0597 22.6135 23.8466 22.8266 23.6761 23.1249L20.8631 29.2624C20.5648 29.987 21.2893 30.7115 22.0139 30.4132L28.1514 27.6002C28.4498 27.4297 28.6629 27.2166 28.8334 26.9182L31.6464 20.7807Z" fill="#7300E5"/>
</svg>
