<svg width="48" height="48" viewBox="0 0 48 48" fill="none" xmlns="http://www.w3.org/2000/svg">
<rect width="48" height="48" rx="16" fill="#7300E5" fill-opacity="0.14"/>
<path d="M34.5744 22.8186C34.5744 28.6578 29.8008 33.3888 24.0043 33.3888C18.1651 33.3888 13.4341 28.6578 13.4341 22.8186C13.4341 17.0221 18.1651 12.2485 24.0043 12.2485C29.8008 12.2485 34.5744 17.0221 34.5744 22.8186ZM22.7682 28.4447L30.6106 20.6023C30.8663 20.3466 30.8663 19.8777 30.6106 19.622L29.6303 18.6843C29.3746 18.386 28.9483 18.386 28.6926 18.6843L22.2994 25.0776L19.2733 22.0941C19.0175 21.7957 18.5913 21.7957 18.3356 22.0941L17.3553 23.0317C17.0996 23.2875 17.0996 23.7563 17.3553 24.012L21.7879 28.4447C22.0437 28.7004 22.5125 28.7004 22.7682 28.4447Z" fill="#A78BFA"/>
</svg>
