<svg width="48" height="48" viewBox="0 0 48 48" fill="none" xmlns="http://www.w3.org/2000/svg">
<rect width="48" height="48" rx="16" fill="#7300E5" fill-opacity="0.14"/>
<path d="M32.1876 30.6381V31.32C32.1876 32.4708 31.2499 33.3658 30.1417 33.3658H13.7751C12.6243 33.3658 11.7292 32.4708 11.7292 31.32V20.4089C11.7292 19.3007 12.6243 18.3631 13.7751 18.3631H14.457V27.2283C14.457 29.1463 15.9488 30.6381 17.8667 30.6381H32.1876ZM36.2792 27.2283C36.2792 28.3791 35.3416 29.2742 34.2334 29.2742H17.8667C16.716 29.2742 15.8209 28.3791 15.8209 27.2283V16.3172C15.8209 15.2091 16.716 14.2714 17.8667 14.2714H34.2334C35.3416 14.2714 36.2792 15.2091 36.2792 16.3172V27.2283ZM22.6404 18.3631C22.6404 17.2549 21.7027 16.3172 20.5945 16.3172C19.4437 16.3172 18.5487 17.2549 18.5487 18.3631C18.5487 19.5138 19.4437 20.4089 20.5945 20.4089C21.7027 20.4089 22.6404 19.5138 22.6404 18.3631ZM18.5487 24.5006V26.5464H33.5515V21.7728L29.8008 18.0647C29.5877 17.8516 29.2893 17.8516 29.0762 18.0647L23.3223 23.8186L21.6174 22.1564C21.4043 21.9433 21.106 21.9433 20.8929 22.1564L18.5487 24.5006Z" fill="#7300E5"/>
</svg>
