<svg width="53" height="53" viewBox="0 0 53 53" fill="none" xmlns="http://www.w3.org/2000/svg">
<rect width="52.3733" height="52.3733" rx="16" fill="#7300E5" fill-opacity="0.14"/>
<path d="M37.1871 20.2266V32.5016C37.1871 33.6524 36.2494 34.5475 35.1413 34.5475H17.4107C16.2599 34.5475 15.3649 33.6524 15.3649 32.5016V20.2266C15.3649 19.1185 16.2599 18.1808 17.4107 18.1808H21.1614L21.6729 16.8169C21.9712 16.0071 22.7384 15.453 23.5908 15.453H28.9185C29.771 15.453 30.5382 16.0071 30.8365 16.8169L31.3906 18.1808H35.1413C36.2494 18.1808 37.1871 19.1185 37.1871 20.2266ZM31.3906 26.3641C31.3906 23.5511 29.089 21.2496 26.276 21.2496C23.4204 21.2496 21.1614 23.5511 21.1614 26.3641C21.1614 29.2198 23.4204 31.4787 26.276 31.4787C29.089 31.4787 31.3906 29.2198 31.3906 26.3641ZM30.0267 26.3641C30.0267 28.4526 28.3218 30.1148 26.276 30.1148C24.1875 30.1148 22.5253 28.4526 22.5253 26.3641C22.5253 24.3183 24.1875 22.6135 26.276 22.6135C28.3218 22.6135 30.0267 24.3183 30.0267 26.3641Z" fill="#7300E5"/>
</svg>
