<svg width="21" height="18" viewBox="0 0 21 18" fill="none" xmlns="http://www.w3.org/2000/svg">
<path d="M20.25 8.4375C20.25 9.28125 19.793 10.0195 19.0898 10.4062V15.75C19.0898 16.1016 18.8437 16.875 17.9648 16.875C17.7187 16.875 17.4726 16.8047 17.2969 16.6289L14.2734 14.2383C12.7969 13.043 10.8984 12.375 8.99998 12.375H7.98045C7.91014 12.7617 7.83983 13.1133 7.83983 13.5C7.83983 14.5547 8.19139 15.4688 8.75389 16.2422C9.31639 16.9805 8.75389 18 7.83983 18H5.23827C4.81639 18 4.42967 17.7891 4.25389 17.4023C3.65623 16.2422 3.33983 14.9062 3.33983 13.5C3.33983 13.1484 3.37498 12.7617 3.41014 12.375H2.24998C0.98436 12.375 -1.52588e-05 11.3906 -1.52588e-05 10.125V6.75C-1.52588e-05 5.51953 0.98436 4.5 2.24998 4.5H8.99998C10.8984 4.5 12.7969 3.86719 14.2734 2.67188L17.2969 0.28125C17.4726 0.105469 17.7187 0 18 0C18.8789 0 19.125 0.84375 19.125 1.16016V6.50391C19.793 6.89062 20.25 7.62891 20.25 8.4375ZM16.875 13.4297V3.48047L15.6797 4.42969C13.7812 5.94141 11.4258 6.75 8.99998 6.75V10.125C11.4258 10.125 13.7812 10.9688 15.6797 12.4805L16.875 13.4297Z" fill="#6E6E6E"/>
</svg>
