<svg width="23" height="14" viewBox="0 0 23 14" fill="none" xmlns="http://www.w3.org/2000/svg">
<path d="M15.2579 0C15.5743 0 15.8555 0.140625 16.0665 0.351562L17.9649 2.25V9.07031C17.8946 8.96484 17.7891 8.89453 17.7188 8.78906L12.586 4.64062L13.5 3.79688C13.7461 3.58594 13.7461 3.23438 13.5352 3.02344C13.3243 2.77734 12.9727 2.77734 12.7266 2.98828L9.94927 5.55469C9.91411 5.55469 9.91411 5.55469 9.91411 5.55469C9.31645 6.08203 8.40239 5.94141 7.94536 5.44922C7.45317 4.92188 7.45317 4.04297 8.01567 3.48047L11.4961 0.316406C11.7071 0.105469 11.9532 0 12.2344 0H15.2579ZM19.125 2.28516H22.5V11.2852H20.25C19.6172 11.2852 19.125 10.7578 19.125 10.1602V2.28516ZM20.8125 10.1602C21.0938 10.1602 21.375 9.87891 21.375 9.59766C21.375 9.28125 21.0938 9.03516 20.8125 9.03516C20.4961 9.03516 20.25 9.28125 20.25 9.59766C20.25 9.87891 20.4961 10.1602 20.8125 10.1602ZM4.673e-05 11.25V2.28516H3.37505V10.125C3.37505 10.7578 2.8477 11.25 2.25005 11.25H4.673e-05ZM1.68755 9.03516C1.37114 9.03516 1.12505 9.28125 1.12505 9.59766C1.12505 9.87891 1.37114 10.1602 1.68755 10.1602C1.9688 10.1602 2.25005 9.87891 2.25005 9.59766C2.25005 9.28125 1.9688 9.03516 1.68755 9.03516ZM16.9805 9.66797C17.4727 10.0547 17.543 10.7578 17.1563 11.25L16.8399 11.6719C16.418 12.1641 15.7149 12.2344 15.2579 11.8477L15.0469 11.6719L13.9571 13.043C13.5 13.6055 12.6563 13.6758 12.0938 13.2188L11.4961 12.6914H11.461C10.6875 13.6406 9.2813 13.8164 8.29692 13.0078L5.13286 10.125H4.50005V2.25L6.39848 0.351562C6.60942 0.140625 6.89067 0 7.20708 0H10.1602L7.27739 2.63672C6.25786 3.58594 6.18755 5.20312 7.10161 6.22266C8.05083 7.24219 9.63286 7.34766 10.6875 6.36328L11.7422 5.41406L16.9805 9.66797Z" fill="#6E6E6E"/>
</svg>
