<svg width="19" height="17" viewBox="0 0 19 17" fill="none" xmlns="http://www.w3.org/2000/svg">
<path d="M11.707 7.91016L12.4805 9.45703H16.3125L9.87889 16.0312C9.6328 16.2773 9.24608 16.2773 8.99998 16.0312L2.56639 9.45703H5.87108L6.92577 6.96094L8.92967 11.3906C9.14061 11.8125 9.73827 11.8477 9.9492 11.4258L11.707 7.91016ZM17.0859 1.93359C18.8086 3.69141 18.8789 6.46875 17.3672 8.33203H13.1836L12.1992 6.39844C11.9883 5.97656 11.3906 5.97656 11.1797 6.39844L9.45702 9.84375L7.41795 5.30859C7.20702 4.85156 6.5742 4.85156 6.39842 5.30859L5.1328 8.33203H1.54686C-1.52588e-05 6.46875 0.0702972 3.69141 1.79295 1.93359L1.86327 1.86328C3.69139 0 6.64452 0 8.47264 1.86328L9.45702 2.84766L10.4062 1.86328C12.2344 0 15.1875 0 17.0156 1.86328L17.0859 1.93359Z" fill="#6E6E6E"/>
</svg>
