<svg width="18" height="16" viewBox="0 0 18 16" fill="none" xmlns="http://www.w3.org/2000/svg">
<path d="M11.25 10.6875V9H18V14.0625C18 14.9766 17.1914 15.75 16.3125 15.75H1.68748C0.773422 15.75 -1.52588e-05 14.9766 -1.52588e-05 14.0625V9H6.74998V10.6875C6.74998 11.0039 6.99608 11.25 7.31248 11.25H10.6875C10.9687 11.25 11.25 11.0039 11.25 10.6875ZM16.3125 3.375C17.1914 3.375 18 4.18359 18 5.0625V7.875H-1.52588e-05V5.0625C-1.52588e-05 4.18359 0.773422 3.375 1.68748 3.375H4.49998V1.6875C4.49998 0.808594 5.27342 0 6.18748 0H11.8125C12.6914 0 13.5 0.808594 13.5 1.6875V3.375H16.3125ZM11.25 3.375V2.25H6.74998V3.375H11.25Z" fill="#6E6E6E"/>
</svg>
