<svg width="21" height="16" viewBox="0 0 21 16" fill="none" xmlns="http://www.w3.org/2000/svg">
<path d="M16.875 13.5V14.0625C16.875 15.0117 16.1016 15.75 15.1875 15.75H1.68752C0.738297 15.75 1.62125e-05 15.0117 1.62125e-05 14.0625V5.0625C1.62125e-05 4.14844 0.738297 3.375 1.68752 3.375H2.25002V10.6875C2.25002 12.2695 3.48048 13.5 5.06252 13.5H16.875ZM20.25 10.6875C20.25 11.6367 19.4766 12.375 18.5625 12.375H5.06252C4.1133 12.375 3.37502 11.6367 3.37502 10.6875V1.6875C3.37502 0.773438 4.1133 0 5.06252 0H18.5625C19.4766 0 20.25 0.773438 20.25 1.6875V10.6875ZM9.00002 3.375C9.00002 2.46094 8.22658 1.6875 7.31252 1.6875C6.3633 1.6875 5.62502 2.46094 5.62502 3.375C5.62502 4.32422 6.3633 5.0625 7.31252 5.0625C8.22658 5.0625 9.00002 4.32422 9.00002 3.375ZM5.62502 8.4375V10.125H18V6.1875L14.9063 3.12891C14.7305 2.95312 14.4844 2.95312 14.3086 3.12891L9.56252 7.875L8.15627 6.50391C7.98048 6.32812 7.73439 6.32812 7.55861 6.50391L5.62502 8.4375Z" fill="#6E6E6E"/>
</svg>
