<svg width="18" height="14" viewBox="0 0 18 14" fill="none" xmlns="http://www.w3.org/2000/svg">
<path d="M17.4375 11.25C17.7187 11.25 18 11.5312 18 11.8125V12.9375C18 13.2539 17.7187 13.5 17.4375 13.5H1.12498C0.492172 13.5 -1.52588e-05 13.0078 -1.52588e-05 12.375V0.5625C-1.52588e-05 0.28125 0.246078 0 0.562485 0H1.68748C1.96873 0 2.24998 0.28125 2.24998 0.5625V11.25H17.4375ZM16.3125 1.125C16.5937 1.125 16.875 1.40625 16.8398 1.6875V5.87109C16.8398 6.60938 15.9609 6.99609 15.4336 6.46875L14.2734 5.30859L10.8984 8.68359C10.4765 9.14062 9.73827 9.14062 9.31639 8.68359L6.74998 6.11719L5.09764 7.73438C4.8867 7.94531 4.53514 7.94531 4.3242 7.73438L3.51561 6.92578C3.30467 6.71484 3.30467 6.36328 3.51561 6.15234L5.94139 3.72656C6.36327 3.26953 7.10155 3.26953 7.52342 3.72656L10.125 6.29297L12.6914 3.72656L11.5312 2.56641C11.0039 2.03906 11.3906 1.125 12.1289 1.125H16.3125Z" fill="#6E6E6E"/>
</svg>
