<svg width="20" height="19" viewBox="0 0 20 19" fill="none" xmlns="http://www.w3.org/2000/svg">
<path d="M18.7031 10.125C19.0547 10.125 19.336 10.4414 19.2656 10.7578C19.0195 12.7266 18.0703 14.4492 16.6992 15.7148C16.4883 15.9258 16.1367 15.9258 15.9258 15.7148L10.3711 10.125H18.7031ZM18.1406 7.875C18.1758 8.19141 17.8945 8.4375 17.5781 8.4375H9.7383V0.597656C9.7383 0.28125 9.98439 0 10.3008 0.0351562C14.5195 0.316406 17.8594 3.65625 18.1406 7.875ZM8.0508 10.125L13.5 15.6094C13.7461 15.8555 13.7461 16.2773 13.4649 16.4531C12.1289 17.4375 10.4766 18 8.71877 18C4.18361 18.0703 0.316422 14.3789 0.175797 9.87891C1.62125e-05 5.48438 3.19923 1.82812 7.41798 1.23047C7.73439 1.19531 8.0508 1.47656 8.0508 1.79297V10.125Z" fill="#7300E5"/>
</svg>
