<svg width="1440" height="361" viewBox="0 0 1440 361" fill="none" xmlns="http://www.w3.org/2000/svg">
<path fill-rule="evenodd" clip-rule="evenodd" d="M547.736 289.629C553.99 302.554 548.612 318.304 534.917 322.622C498.394 334.137 458.89 333.701 422.29 320.971C377.451 305.375 340.644 272.606 319.966 229.872C319.645 229.209 319.328 228.545 319.016 227.878C298.69 304.413 228.931 360.81 146 360.81C47.141 360.81 -33 280.669 -33 181.81C-33 82.9512 47.141 2.81022 146 2.81022C217.696 2.81022 279.547 44.9617 308.123 105.835C309.263 101.558 310.564 97.3106 312.028 93.1016C324.758 56.5015 348.93 25.2527 380.624 3.75908C392.509 -4.3004 408.197 1.25569 414.451 14.1814L481.093 151.905L547.736 289.629ZM883 360.81C981.859 360.81 1062 280.669 1062 181.81C1062 82.9512 981.859 2.81022 883 2.81022C803.501 2.81022 736.107 54.636 712.759 126.345C712.919 123.854 713 121.342 713 118.81C713 54.7452 661.065 2.81022 597 2.81022C532.935 2.81022 481 54.7452 481 118.81C481 182.875 532.935 234.81 597 234.81C646.331 234.81 688.47 204.017 705.243 160.604C704.422 167.558 704 174.635 704 181.81C704 280.669 784.141 360.81 883 360.81ZM1340 329C1417.32 329 1480 266.32 1480 189C1480 111.68 1417.32 48.9997 1340 48.9997C1301.34 48.9997 1266.34 64.6718 1241 90.0098V28.8102C1241 14.4508 1229.3 2.61627 1215.09 4.69459C1177.2 10.2372 1141.83 27.8372 1114.43 55.2381C1080.86 88.8071 1062 134.336 1062 181.81C1062 229.284 1080.86 274.813 1114.43 308.382C1141.83 335.783 1177.2 353.383 1215.09 358.926C1229.3 361.004 1241 349.17 1241 334.81V287.99C1266.34 313.328 1301.34 329 1340 329Z" fill="#E0B1FE" fill-opacity="0.04"/>
</svg>
