<svg width="24" height="24" viewBox="0 0 24 24" fill="none" xmlns="http://www.w3.org/2000/svg">
<path fill-rule="evenodd" clip-rule="evenodd" d="M17.9834 0H5.99448C2.69782 0 0 2.6991 0 6V18C0 21.2997 2.69782 24 5.99448 24H17.9834C21.2801 24 23.9779 21.2997 23.9779 18V6C23.9779 2.6991 21.2801 0 17.9834 0ZM11.989 16.9999C9.22973 16.9999 6.99349 14.7607 6.99349 12.0001C6.99349 9.2383 9.22973 7 11.989 7C14.7471 7 16.9845 9.2383 16.9845 12.0001C16.9845 14.7607 14.7471 16.9999 11.989 16.9999ZM16.9844 5.5C16.9844 6.3283 17.6546 7 18.483 7C19.3114 7 19.9816 6.3283 19.9816 5.5C19.9816 4.6717 19.3114 4 18.483 4C17.6546 4 16.9844 4.6717 16.9844 5.5Z" fill="#FAFAFA"/>
</svg>
