<svg width="25" height="24" viewBox="0 0 25 24" fill="none" xmlns="http://www.w3.org/2000/svg">
<g clip-path="url(#clip0_1035_662)">
<path d="M22.3332 0C23.0405 0 23.7187 0.280951 24.2188 0.781048C24.7189 1.28115 24.9999 1.95942 24.9999 2.66667V21.3333C24.9999 22.0406 24.7189 22.7189 24.2188 23.219C23.7187 23.719 23.0405 24 22.3332 24H3.66654C2.9593 24 2.28102 23.719 1.78093 23.219C1.28083 22.7189 0.999878 22.0406 0.999878 21.3333V2.66667C0.999878 1.95942 1.28083 1.28115 1.78093 0.781048C2.28102 0.280951 2.9593 0 3.66654 0H22.3332ZM21.6665 20.6667V13.6C21.6665 12.4472 21.2086 11.3416 20.3934 10.5264C19.5783 9.71128 18.4727 9.25333 17.3199 9.25333C16.1865 9.25333 14.8665 9.94667 14.2265 10.9867V9.50667H10.5065V20.6667H14.2265V14.0933C14.2265 13.0667 15.0532 12.2267 16.0799 12.2267C16.5749 12.2267 17.0497 12.4233 17.3998 12.7734C17.7499 13.1235 17.9465 13.5983 17.9465 14.0933V20.6667H21.6665ZM6.17321 7.41333C6.7673 7.41333 7.33705 7.17733 7.75713 6.75725C8.17721 6.33717 8.41321 5.76742 8.41321 5.17333C8.41321 3.93333 7.41321 2.92 6.17321 2.92C5.57559 2.92 5.00245 3.1574 4.57986 3.57999C4.15728 4.00257 3.91988 4.57571 3.91988 5.17333C3.91988 6.41333 4.93321 7.41333 6.17321 7.41333ZM8.02655 20.6667V9.50667H4.33321V20.6667H8.02655Z" fill="#FAFAFA"/>
</g>
<defs>
<clipPath id="clip0_1035_662">
<rect width="24" height="24" fill="white" transform="translate(0.977905)"/>
</clipPath>
</defs>
</svg>
